<?xml version="1.0" encoding="UTF-8"?>
<svg version="1.1" xmlns="http://www.w3.org/2000/svg" width="256" height="256">
<path d="M0 0 C3.60829245 3.18378746 4.86046742 6.37598205 5.6875 11.0625 C5.12957281 14.84400654 4.28406568 16.70675031 2.43359375 19.9765625 C1.88823975 20.95101318 1.34288574 21.92546387 0.78100586 22.92944336 C-0.03871704 24.3874939 -0.03871704 24.3874939 -0.875 25.875 C-1.78507442 27.55392215 -2.69148502 29.23483686 -3.59375 30.91796875 C-9.35181451 41.58498702 -15.30305521 52.11246403 -21.45117188 62.55932617 C-25.87615171 70.10174058 -30.15141982 77.71822362 -34.375 85.375 C-39.7854153 95.18019246 -45.32009223 104.89997601 -51.00976562 114.54589844 C-53.58924779 118.92450278 -56.1362532 123.3066936 -58.5390625 127.78515625 C-59.13968506 128.89661011 -59.13968506 128.89661011 -59.75244141 130.03051758 C-60.46817895 131.36594871 -61.17228845 132.70772364 -61.86083984 134.05737305 C-64.16062087 138.33657052 -66.5967338 140.59803616 -70.875 142.875 C-74.63158441 143.78284123 -78.24147252 143.72124353 -81.71484375 141.921875 C-84.98284057 139.39696792 -87.03201061 136.90261598 -87.875 132.875 C-87.78173482 124.81688851 -84.02998879 119.03058365 -80.0625 112.1875 C-79.37374025 110.97780232 -78.68617406 109.76742436 -77.99975586 108.55639648 C-76.61710508 106.12236957 -75.22696892 103.69289789 -73.82910156 101.26757812 C-72.13391485 98.32451034 -70.45000861 95.37556943 -68.7734375 92.421875 C-66.3627573 88.18044433 -63.93746606 83.9475899 -61.50732422 79.71728516 C-58.33279143 74.18962875 -55.16540621 68.65788584 -52 63.125 C-51.49116272 62.23601517 -51.49116272 62.23601517 -50.9720459 61.32907104 C-46.74946095 53.9493277 -42.56398089 46.55076956 -38.42700195 39.12255859 C-35.59102919 34.03173871 -32.73817991 28.95056278 -29.875 23.875 C-29.28493164 22.82828125 -28.69486328 21.7815625 -28.08691406 20.703125 C-26.3432499 17.62685059 -24.58115511 14.56196045 -22.8125 11.5 C-22.28825439 10.57203613 -21.76400879 9.64407227 -21.22387695 8.68798828 C-16.14729719 -0.01307724 -10.00380487 -3.91453234 0 0 Z " fill="#008000" transform="translate(165.875,57.125)"/>
<path d="M0 0 C3.5178347 1.37654401 4.70282619 2.55936298 6.8125 5.6875 C8.3273646 9.91317493 8.42701891 12.51630144 8 17 C5.87424561 21.24451617 2.85373904 24.57038262 -0.375 28 C-0.8915918 28.55453857 -1.40818359 29.10907715 -1.94042969 29.68041992 C-7.80888344 35.93652918 -13.89117357 41.97985008 -20 48 C-14.76885676 55.59770666 -8.35589755 61.74333835 -1.72460938 68.109375 C7.13663988 76.76875762 7.13663988 76.76875762 8.43359375 83.125 C8.44410857 88.17211423 7.39363903 91.05604113 4 95 C0.54560484 97.87866263 -2.36623085 98.3583028 -6.83984375 98.49609375 C-12.41953783 97.21468118 -16.1831658 92.96952414 -19.8125 88.8125 C-24.56855525 83.45143719 -29.58070181 78.40142419 -34.6875 73.375 C-51.90306955 56.35752742 -51.90306955 56.35752742 -52.42578125 47.36328125 C-50.82500367 38.47823137 -42.85315195 32.54582138 -36.6875 26.5625 C-34.64585868 24.56773392 -32.60873918 22.56843329 -30.57421875 20.56640625 C-30.08490372 20.08604416 -29.59558868 19.60568207 -29.09144592 19.11076355 C-25.71484066 15.77252513 -22.53671702 12.32165011 -19.49267578 8.67919922 C-13.55740461 2.00226184 -8.98316139 -0.84071181 0 0 Z " fill="#008000" transform="translate(52,81)"/>
<path d="M0 0 C7.29669302 3.49633207 12.9983426 10.65603702 18.20703125 16.7265625 C23.04327962 22.29088324 28.37288597 27.35427443 33.6796875 32.46484375 C42.13599585 40.76560128 42.13599585 40.76560128 43.43359375 47.125 C43.43552734 48.053125 43.43552734 48.053125 43.4375 49 C43.45683594 49.61875 43.47617187 50.2375 43.49609375 50.875 C42.09602165 56.87215924 36.873876 61.52792902 32.75 65.875 C32.14808838 66.5155835 31.54617676 67.15616699 30.92602539 67.81616211 C25.54145245 73.5096464 20.01036517 79.05445459 14.41894531 84.54443359 C10.70499006 88.20840418 7.30633483 91.96627151 4 96 C0.4603027 98.68528761 -3.72698096 98.53732575 -8 98 C-12.56432971 96.13277421 -14.77863437 93.36045847 -17 89 C-17.78795117 82.79488455 -16.745616 79.0818028 -13 74 C-9.61859091 70.31569596 -6.03864177 66.84245249 -2.4375 63.375 C-0.53401275 61.53490923 1.36135768 59.68737254 3.25390625 57.8359375 C4.09252197 57.02688965 4.9311377 56.2178418 5.79516602 55.38427734 C7.94899743 53.05515348 9.48062793 50.77488079 11 48 C10.39526855 47.40050537 9.79053711 46.80101074 9.16748047 46.18334961 C6.89538067 43.92843302 4.62564787 41.67116622 2.35742188 39.41235352 C1.38080496 38.44072263 0.40328728 37.46999617 -0.57519531 36.50024414 C-16.77818876 20.43807426 -16.77818876 20.43807426 -17.25 13.125 C-17.16560021 8.00474581 -15.29611872 5.41048213 -11.875 1.6875 C-7.8470247 -0.67674637 -4.56287022 -0.77267856 0 0 Z " fill="#008000" transform="translate(213,81)"/>
</svg>
