<?xml version="1.0" encoding="UTF-8"?>
<svg version="1.1" xmlns="http://www.w3.org/2000/svg" width="470" height="458">
<path d="M0 0 C155.1 0 310.2 0 470 0 C470 151.14 470 302.28 470 458 C314.9 458 159.8 458 0 458 C0 306.86 0 155.72 0 0 Z " fill="#B4B4B2" transform="translate(0,0)"/>
<path d="M0 0 C0.60585938 0.46067871 1.21171875 0.92135742 1.8359375 1.39599609 C22.98713007 17.60447775 40.45024916 36.46083112 52.96484375 60.0625 C54.69488267 63.30061058 56.50068478 66.49464784 58.3125 69.6875 C59.23482422 71.33298828 59.23482422 71.33298828 60.17578125 73.01171875 C61.9076885 76.01261517 61.9076885 76.01261517 64.07421875 78.48828125 C79.05967484 98.03320674 78.03578603 137.81317022 75.07739258 160.66113281 C72.56068326 177.77538653 68.63410726 194.40606357 61 210 C60.41777947 211.22647266 59.83576081 212.45304117 59.25390625 213.6796875 C41.98593848 249.61428847 15.26077122 278.18782384 -20 297 C-20.72574219 297.39960938 -21.45148438 297.79921875 -22.19921875 298.2109375 C-24 299 -24 299 -27 299 C-25.65951283 296.06768431 -24.15181514 293.83242887 -22 291.4375 C-21.36964844 290.72464844 -20.73929688 290.01179688 -20.08984375 289.27734375 C-18.71749207 287.7818652 -17.31414233 286.31414233 -15.87890625 284.87890625 C5.7368005 262.67997638 22.27983842 231.24072713 29 201 C29.47251986 199.16197784 29.94533431 197.32402485 30.42382812 195.48754883 C32.20539426 188.59414109 33.76160825 181.66289686 35.1875 174.6875 C35.35435303 173.88828125 35.52120605 173.0890625 35.69311523 172.265625 C38.08903474 160.26262258 38.24099672 148.25614018 38.25 136.0625 C38.25067474 135.23819489 38.25134949 134.41388977 38.25204468 133.56460571 C38.2370218 121.99601066 37.8840236 110.77678663 35.50488281 99.41552734 C34.93215268 96.67539586 34.41585968 93.92687656 33.8984375 91.17578125 C30.849775 75.39070725 26.77979363 60.01000184 21 45 C20.55164795 43.81035645 20.55164795 43.81035645 20.09423828 42.59667969 C19.11861102 40.01713904 18.12327648 37.44585101 17.125 34.875 C16.79886719 34.00746094 16.47273438 33.13992187 16.13671875 32.24609375 C13.81790797 26.31823896 11.38883701 21.13012612 5.8125 17.625 C0.0301006 16.34002236 -5.05214736 16.04378143 -10.4375 18.6875 C-14.34658676 22.21521244 -15.7911655 24.3505614 -16.4609375 29.640625 C-16.35717841 37.32421794 -12.61928324 44.55456262 -9.75 51.5625 C-5.75400196 61.38881414 -2.23676134 70.99478914 0.15478516 81.34399414 C1.05088121 85.22008844 2.07582325 89.03775184 3.125 92.875 C5.70999029 103.00264073 7.08592028 113.54146733 7 124 C5.70231689 124.00808685 4.40463379 124.01617371 3.06762695 124.02450562 C-9.17380079 124.10205773 -21.41511864 124.18982004 -33.65640259 124.28752708 C-39.9494609 124.33743004 -46.24250291 124.38376076 -52.53564453 124.421875 C-58.61113913 124.45880338 -64.68649537 124.50518411 -70.76187134 124.55806351 C-73.0774187 124.57656728 -75.39299568 124.59169 -77.70858765 124.60334396 C-80.95691028 124.620275 -84.20491879 124.64932705 -87.453125 124.68115234 C-88.40619034 124.68331253 -89.35925568 124.68547272 -90.34120178 124.68769836 C-100.26086749 124.71272053 -100.26086749 124.71272053 -108.5 129.5 C-110.78800218 134.83867176 -111.00574548 139.70025078 -109.3046875 145.28125 C-107.2554144 149.89641968 -104.69400228 152.89250321 -100 155 C-96.5286338 155.58540807 -93.10261571 155.56413046 -89.58837891 155.54589844 C-88.03624695 155.56140495 -88.03624695 155.56140495 -86.45275879 155.57722473 C-83.04386768 155.60664412 -79.63557056 155.60815177 -76.2265625 155.609375 C-73.8585802 155.62435716 -71.49060835 155.64108437 -69.12265015 155.65948486 C-62.89857502 155.70316616 -56.67464087 155.72315941 -50.45043945 155.73822021 C-44.09578107 155.7577883 -37.74127498 155.79975874 -31.38671875 155.83984375 C-18.92452613 155.91515451 -6.46236759 155.96544092 6 156 C6.01705378 157.72262105 6.02907762 159.44529223 6.0390625 161.16796875 C6.04993896 162.60692505 6.04993896 162.60692505 6.06103516 164.07495117 C5.62793216 184.83097917 -3.22765639 205.57550156 -12 224 C-12.31050293 224.65822754 -12.62100586 225.31645508 -12.94091797 225.99462891 C-19.41231607 239.48520838 -28.55781756 251.91325945 -38.8515625 262.7265625 C-40.61515706 264.5927662 -42.18115757 266.47476705 -43.75 268.5 C-56.80824338 283.79575137 -76.14247949 292.49252863 -95 298 C-95.66741211 298.1949707 -96.33482422 298.38994141 -97.02246094 298.59082031 C-107.3425581 301.4005084 -118.00706313 301.32762817 -128.625 301.4375 C-129.32192963 301.44989716 -130.01885925 301.46229431 -130.73690796 301.47506714 C-141.1652603 301.6286396 -150.03131916 300.1034215 -160 297 C-161.72822239 296.51743867 -163.4571721 296.03745624 -165.1875 295.5625 C-182.02865636 290.3254792 -197.86588924 281.60661326 -211.40380859 270.32714844 C-213.08359355 268.9304964 -214.78528546 267.56353134 -216.48828125 266.1953125 C-238.74885427 248.02944281 -254.54319331 223.00552015 -264 196 C-264.22139648 195.37254883 -264.44279297 194.74509766 -264.67089844 194.09863281 C-278.50882314 153.84469914 -276.02455234 108.54073397 -258 70 C-257.49984375 68.90816406 -256.9996875 67.81632812 -256.484375 66.69140625 C-252.11746125 57.53925291 -246.89041748 49.23557435 -241 41 C-240.59861816 40.43345703 -240.19723633 39.86691406 -239.78369141 39.28320312 C-220.07649023 11.83245724 -192.50124175 -9.83570893 -161 -22 C-160.3085791 -22.26796387 -159.6171582 -22.53592773 -158.90478516 -22.81201172 C-105.95301008 -42.87629054 -44.99996652 -34.47398425 0 0 Z " fill="#FDFDFD" transform="translate(334,91)"/>
<path d="M0 0 C155.1 0 310.2 0 470 0 C470 151.14 470 302.28 470 458 C314.9 458 159.8 458 0 458 C0 306.86 0 155.72 0 0 Z M196 7 C194.75734375 7.18175781 193.5146875 7.36351562 192.234375 7.55078125 C159.95370554 12.96774291 125.69891104 26.81404796 99.63085938 46.75439453 C97.98969761 48.00786868 96.33276737 49.2376721 94.671875 50.46484375 C87.01043077 56.17558816 79.88424181 62.3742178 73 69 C72.37158203 69.60118652 71.74316406 70.20237305 71.09570312 70.82177734 C61.91540746 79.64881381 53.42667646 88.64345887 46 99 C45.53174805 99.64565918 45.06349609 100.29131836 44.58105469 100.95654297 C25.64949368 127.33317083 13.48226654 156.30141382 7 188 C6.73002197 189.246604 6.46004395 190.49320801 6.18188477 191.77758789 C3.77350349 203.49811122 3.48567794 215.00138206 3.5625 226.9375 C3.56520905 227.92423706 3.56791809 228.91097412 3.57070923 229.9276123 C3.6612414 251.7020311 5.92811755 272.31309152 13 293 C13.2671582 293.80663086 13.53431641 294.61326172 13.80957031 295.44433594 C17.2831483 305.92858676 21.02109141 316.1219365 26 326 C26.34369629 326.69915527 26.68739258 327.39831055 27.04150391 328.11865234 C33.01243223 340.22244118 39.88531248 351.22636531 48 362 C48.70987061 362.96881104 49.41974121 363.93762207 50.15112305 364.93579102 C55.92808866 372.73089753 62.25214169 379.72225778 69.14868164 386.53979492 C70.81172912 388.18673658 72.45807294 389.84916151 74.10351562 391.51367188 C81.27439056 398.69863967 88.79786685 405.02633391 97 411 C97.67877197 411.50136475 98.35754395 412.00272949 99.05688477 412.51928711 C114.18658044 423.49779582 131.56308727 432.33181799 149 439 C150.0823291 439.41475586 150.0823291 439.41475586 151.18652344 439.83789062 C209.72719782 461.99885519 276.00522136 460.41952539 333.1875 434.6875 C335.1250345 433.79174129 337.06252984 432.89589786 339 432 C340.37223232 431.38375034 341.74464088 430.76789305 343.1171875 430.15234375 C350.22959839 426.93003765 357.02239953 423.73828246 363.29296875 419.02734375 C365.47413346 417.39383078 367.6720641 415.84531519 369.92578125 414.31640625 C378.25555448 408.63440832 385.9158281 402.70241779 393.16796875 395.69140625 C395.13152016 393.82535532 397.05783414 392.09863379 399.1484375 390.39453125 C401.52170303 388.40163841 403.4658628 386.49489808 405.4375 384.125 C407.60227913 381.53160546 409.8667643 379.1497932 412.29296875 376.8046875 C416.27320384 372.85131386 419.58115419 368.53100356 422.875 364 C423.48359863 363.16621826 424.09219727 362.33243652 424.71923828 361.47338867 C437.80002618 343.33873875 447.03159153 323.82780351 455 303 C455.4125 301.93652344 455.825 300.87304688 456.25 299.77734375 C465.02679432 276.4982682 468.49153873 252.2475392 468.4375 227.5 C468.43756042 226.34913406 468.43756042 226.34913406 468.43762207 225.17501831 C468.27409225 171.75599376 446.22757973 119.89034188 410 81 C408.78661781 79.60855334 407.57802197 78.21291361 406.375 76.8125 C370.21842978 35.41946099 318.21918373 13.4794724 265 5 C263.8850415 4.81824219 262.77008301 4.63648438 261.62133789 4.44921875 C257.68527103 3.96095858 253.80719626 3.82103004 249.84765625 3.796875 C249.07869019 3.78995132 248.30972412 3.78302765 247.51745605 3.77589417 C245.03241863 3.75863262 242.54759466 3.7523001 240.0625 3.75 C239.21396454 3.74866058 238.36542908 3.74732117 237.49118042 3.74594116 C223.45810101 3.75074163 209.8512236 4.63622066 196 7 Z " fill="#FEFEFE" transform="translate(0,0)"/>
<path d="M0 0 C0.90524414 0.24588867 1.81048828 0.49177734 2.74316406 0.74511719 C12.20715995 3.39226777 21.17374335 6.66752937 30 11 C31.47517208 11.68010733 32.95188289 12.356882 34.4296875 13.03125 C44.05252194 17.44914156 53.18917114 22.09286568 62 28 C62.83990479 28.5580835 62.83990479 28.5580835 63.69677734 29.12744141 C72.38574134 34.94510106 80.05015302 41.47062267 87.6015625 48.68701172 C89.47040364 50.4416604 91.41652371 52.09659406 93.375 53.75 C97.32548011 57.18305756 100.63570918 61.00156706 104 65 C105.25296875 66.42119141 105.25296875 66.42119141 106.53125 67.87109375 C116.68859625 79.45803265 124.69443539 92.04996212 132.08984375 105.5390625 C133.24082229 107.62447557 134.43054463 109.69006461 135.69140625 111.7109375 C138.4414135 116.52139795 138.51913372 121.57269293 138 127 C136.07936852 132.35755096 133.08325568 135.45837216 128 138 C125.609375 138.23828125 125.609375 138.23828125 122.75 138.3125 C121.81671875 138.34988281 120.8834375 138.38726562 119.921875 138.42578125 C116.02639105 137.85812383 114.03003863 136.49556778 111 134 C108.98046875 131.109375 108.98046875 131.109375 107.1875 127.75 C106.85476074 127.1422876 106.52202148 126.5345752 106.17919922 125.90844727 C105.10579586 123.94603038 104.05158672 121.97418263 103 120 C94.72226213 104.54646756 85.08263523 91.67801146 73 79 C72.23429687 78.16984375 71.46859375 77.3396875 70.6796875 76.484375 C42.39621744 46.76276239 0.36244046 27.16734324 -40.5390625 25.7265625 C-58.92592069 25.33504629 -77.30629578 26.71579915 -95 32 C-96.80210937 32.50466797 -96.80210937 32.50466797 -98.640625 33.01953125 C-125.98778567 40.90100812 -148.59810266 55.45649952 -169 75 C-169.50950195 75.48227051 -170.01900391 75.96454102 -170.54394531 76.46142578 C-177.86776988 83.42020705 -184.26962194 90.64448334 -190 99 C-190.50176758 99.72219727 -191.00353516 100.44439453 -191.52050781 101.18847656 C-199.40194492 112.61023836 -206.0320806 124.0278714 -211 137 C-211.24685547 137.64243652 -211.49371094 138.28487305 -211.74804688 138.94677734 C-227.63833902 181.25853171 -225.09818898 227.35677302 -207.0625 268.5 C-201.38864736 280.95129629 -194.60562029 292.31762907 -186 303 C-185.31115723 303.85924072 -185.31115723 303.85924072 -184.60839844 304.73583984 C-178.065871 312.83413216 -171.3310286 319.68826504 -163 326 C-162.02804688 326.79792969 -161.05609375 327.59585937 -160.0546875 328.41796875 C-143.65481911 341.7983856 -124.36743424 350.52220595 -104 356 C-103.39679932 356.17805176 -102.79359863 356.35610352 -102.17211914 356.53955078 C-94.62742206 358.53423856 -86.93520958 358.39654802 -79.1875 358.375 C-78.0890979 358.37418427 -78.0890979 358.37418427 -76.96850586 358.37335205 C-64.95034821 358.33234676 -53.56624748 357.43812579 -42 354 C-41.24315918 353.77505859 -40.48631836 353.55011719 -39.70654297 353.31835938 C-18.43728868 346.77397344 -0.06422326 334.33018305 14 317 C14.76054687 316.06542969 15.52109375 315.13085938 16.3046875 314.16796875 C27.42312065 300.24688279 35.84076207 285.28632921 43 269 C43.48210937 267.91589844 43.96421875 266.83179688 44.4609375 265.71484375 C47.26390469 258.93951859 49.25705307 251.9383226 51.1875 244.875 C51.43781982 243.98780273 51.68813965 243.10060547 51.94604492 242.18652344 C53.60317222 235.85839307 54.44153815 229.59177801 55.08325195 223.09814453 C55.17263283 222.22094254 55.2620137 221.34374054 55.35410309 220.43995667 C55.57237386 218.29360458 55.78659941 216.14684177 56 214 C54.68978882 214.01332367 53.37957764 214.02664734 52.02966309 214.04037476 C39.67070471 214.16210516 27.31186827 214.2519966 14.95244598 214.31087303 C8.59857663 214.34215999 2.24519198 214.38458662 -4.10839844 214.45263672 C-10.2422104 214.51792032 -16.37555671 214.55372587 -22.50968933 214.56926346 C-24.84766468 214.58033341 -27.18561509 214.6019508 -29.52339172 214.63438034 C-32.80326014 214.67806117 -36.08121474 214.68392894 -39.36132812 214.68115234 C-40.3237442 214.702724 -41.28616028 214.72429565 -42.27774048 214.746521 C-48.31599902 214.6913614 -51.75273981 213.45461494 -56.42870331 209.60593605 C-60.31053984 205.63852413 -61.17279417 201.28776642 -61.4375 195.9375 C-61.29564145 191.27744679 -60.1208875 188.56672857 -57 185 C-51.19403783 181.12935855 -44.42683636 181.86121457 -37.68017578 181.88647461 C-36.65517471 181.88632858 -35.63017365 181.88618256 -34.57411194 181.8860321 C-31.19782367 181.88672684 -27.82159109 181.89449871 -24.4453125 181.90234375 C-22.09976227 181.90420949 -19.75421165 181.90563266 -17.40866089 181.90663147 C-11.24376342 181.91044438 -5.07888961 181.9202642 1.08599854 181.93133545 C7.38024577 181.94157593 13.67449683 181.94613474 19.96875 181.95117188 C32.31251038 181.96188757 44.65625322 181.97894927 57 182 C56.5320431 178.3115295 56.05894816 174.62373519 55.58496094 170.93603516 C55.45326508 169.89749893 55.32156921 168.85896271 55.18588257 167.78895569 C54.24911316 160.52764217 53.06055061 153.47452655 51.25 146.375 C50.99395996 145.34415283 50.73791992 144.31330566 50.47412109 143.2512207 C47.37377179 131.09183387 43.5850328 119.16166493 38.77734375 107.56640625 C38.22409424 106.22896362 38.22409424 106.22896362 37.65966797 104.86450195 C36.95281942 103.18011363 36.2303147 101.50216766 35.48876953 99.83276367 C33.23327395 94.52614282 32.16596255 89.77802211 33 84 C35.36380337 79.18147775 38.16236475 76.32923179 43 74 C48.88176384 73.14743163 54.08834782 73.42788933 59 77 C66.1691322 83.66671323 68.82585336 94.0420346 72 103 C72.33322266 103.92474121 72.66644531 104.84948242 73.00976562 105.80224609 C78.2117041 120.33289626 82.13215585 134.83939279 85 150 C85.15839355 150.83273438 85.31678711 151.66546875 85.47998047 152.5234375 C87.40569811 162.77182074 89.15177893 172.86896744 89.16796875 183.3125 C89.17129715 184.0844873 89.17462555 184.85647461 89.17805481 185.65185547 C89.18308675 187.27880261 89.1854643 188.90575993 89.18530273 190.53271484 C89.18746972 192.96600365 89.2056115 195.39882351 89.22460938 197.83203125 C89.28274005 213.25156034 87.26062518 227.8330045 84.0625 242.9375 C83.81048828 244.17306641 83.55847656 245.40863281 83.29882812 246.68164062 C81.91731619 253.29947145 80.27507782 259.63787358 78 266 C77.53156568 267.58037438 77.07094443 269.16313282 76.625 270.75 C68.37131093 297.99961669 53.10220906 322.99361504 34 344 C33.3503125 344.72058594 32.700625 345.44117188 32.03125 346.18359375 C7.21852886 372.310548 -30.38906285 389.15395681 -66.28726196 390.29151917 C-69.92108795 390.36727267 -73.55296988 390.38524522 -77.1875 390.375 C-78.33644745 390.37368576 -78.33644745 390.37368576 -79.50860596 390.37234497 C-91.73345696 390.32637492 -103.22268101 389.51487872 -115 386 C-115.8569043 385.74798828 -116.71380859 385.49597656 -117.59667969 385.23632812 C-146.32138154 376.59716428 -171.28147368 362.88448153 -193 342 C-193.51739746 341.51370117 -194.03479492 341.02740234 -194.56787109 340.52636719 C-207.9158625 327.94408644 -219.01418278 313.88984086 -227.94824219 297.85839844 C-228.98341965 296.02929656 -230.06839338 294.23867226 -231.1640625 292.4453125 C-252.58391247 256.20436954 -257.1758964 211.97276562 -252 171 C-251.855625 169.76121094 -251.71125 168.52242187 -251.5625 167.24609375 C-245.1877924 117.2160225 -215.50475885 69.00709184 -176 38 C-156.13652792 22.66188667 -133.2512732 9.73506862 -109 3 C-108.27345215 2.79181641 -107.5469043 2.58363281 -106.79833984 2.36914062 C-72.78639077 -7.27382311 -34.30071726 -9.3613639 0 0 Z " fill="#030303" transform="translate(284,33)"/>
<path d="M0 0 C4.57822385 3.01967956 8.06524927 6.70435729 9.5234375 12.109375 C9.96806123 18.08003649 7.47047116 21.5980843 4.2890625 26.453125 C2.18596183 30.3189401 1.96796114 33.67641746 2.9375 37.9375 C4.9425088 41.7401029 6.36436262 43.55540841 9.9375 45.9375 C14.69572959 46.64181626 18.75784965 46.49262958 23.125 44.4375 C28.22327072 39.9057038 32.33150096 34.99699589 36 29.25 C38.6901114 25.17962202 40.67959397 22.42797334 44.9375 19.9375 C50.21297555 19.05431127 54.47265437 19.23220396 59.3125 21.5625 C64.27743075 26.05458021 68.0414939 29.97459362 68.4375 36.875 C68.38154446 43.99068004 65.16866023 48.44471593 60.9375 53.9375 C60.43605469 54.5975 59.93460937 55.2575 59.41796875 55.9375 C50.35975349 67.11678495 38.19559184 75.34776495 23.9375 77.9375 C10.2541722 79.25821888 -2.21579466 78.56944661 -13.2265625 69.55859375 C-14.13535156 68.75615234 -14.13535156 68.75615234 -15.0625 67.9375 C-15.66835937 67.41285156 -16.27421875 66.88820313 -16.8984375 66.34765625 C-25.14506324 58.6952197 -29.79465229 49.48342161 -30.43359375 38.23828125 C-30.74776467 25.49535665 -29.58189652 15.01969421 -21.1875 4.8125 C-14.59376418 -1.91731668 -9.06726617 -3.14578622 0 0 Z " fill="#030303" transform="translate(130.0625,253.0625)"/>
<path d="M0 0 C3.83084349 2.61193874 6.65161815 5.67823629 8.75 9.875 C9.44441139 17.40870851 8.04134693 24.43866881 6.375 31.75 C5.47895538 35.78741036 4.60105947 39.82785651 3.75 43.875 C3.55728516 44.7721875 3.36457031 45.669375 3.16601562 46.59375 C1.95272576 52.90463499 1.53548905 59.10870467 1.328125 65.515625 C1.28496658 66.80407822 1.28496658 66.80407822 1.24093628 68.11856079 C1.12625982 71.69245771 1.01668499 75.26572296 0.94726562 78.84082031 C0.56474013 97.06354331 0.56474013 97.06354331 -4.70678711 102.62402344 C-9.28178545 106.33265997 -13.20629629 107.4357804 -19.00390625 107.23046875 C-23.62111853 106.49974472 -26.97690886 104.27540025 -30.125 100.8125 C-38.43867071 86.49451156 -32.24645852 54.41190029 -29.25 38.875 C-29.03537109 37.71758301 -28.82074219 36.56016602 -28.59960938 35.36767578 C-27.885875 31.57239814 -27.13814052 27.78563651 -26.375 24 C-26.02671143 22.22411499 -26.02671143 22.22411499 -25.67138672 20.41235352 C-23.93935683 12.29091547 -21.72541648 6.03446953 -15.5 0.375 C-10.12850979 -2.10414933 -5.54620446 -1.91984 0 0 Z " fill="#030303" transform="translate(179.25,114.125)"/>
<path d="M0 0 C0.66 0.33 1.32 0.66 2 1 C1.01 2.32 0.02 3.64 -1 5 C-0.34 5.33 0.32 5.66 1 6 C-1.31 6.66 -3.62 7.32 -6 8 C-4.55746343 4.63408134 -2.66735273 2.48952921 0 0 Z " fill="#D8D8D6" transform="translate(308,385)"/>
</svg>
