<?xml version="1.0" encoding="UTF-8"?>
<svg version="1.1" xmlns="http://www.w3.org/2000/svg" width="120" height="120">
<path d="M0 0 C10.48652455 8.91354587 18.96984096 22.09668344 20.375 35.9375 C21.43566622 56.85619495 18.93450852 72.8895488 4.98828125 89.296875 C-6.52895243 100.93461785 -20.22439002 106.95193202 -36.45385742 107.17919922 C-55.76034108 107.23526041 -70.53612999 102.88047934 -84.625 88.9375 C-98.18348257 72.32625349 -100.69728857 56.81138417 -99.625 35.9375 C-97.86021035 21.69953606 -89.57933188 8.43000916 -78.54296875 -0.578125 C-54.61287039 -18.2040384 -23.68733123 -17.95493119 0 0 Z " fill="#4877B5" transform="translate(99.625,13.0625)"/>
<path d="M0 0 C3.38886841 1.6944342 4.54486462 4.66260683 5.73779297 8.16796875 C6.50766815 10.76972287 7.22949274 13.38074478 7.9375 16 C8.4669408 17.89076707 8.99688778 19.78139248 9.52734375 21.671875 C10.21422828 24.14727603 10.89842057 26.62307996 11.56689453 29.10351562 C13.96112793 37.96896639 16.87059504 46.83672928 25 52 C29.08827076 52.52996102 31.39774029 52.28908466 35.125 50.5 C42.84919827 43.78330585 44.95735952 34.46363957 47.625 24.9375 C48.19851465 22.92220635 48.7756469 20.90805514 49.35751343 18.89515686 C49.88297129 17.0726793 50.39811228 15.2472363 50.91259766 13.42163086 C54.01617527 3.65588315 54.01617527 3.65588315 58 1 C61.61762564 18.44629141 59.79425334 36.99649543 50 52 C41.69185646 64.10135655 28.60164429 74.75730296 13.84765625 77.609375 C-6.76894085 79.70243054 -23.78034491 77.7057017 -40.625 64.9375 C-51.09223111 56.04035355 -59.63239835 42.82952282 -61 29 C-61.13276339 25.31117648 -61.13981284 21.62836617 -61.125 17.9375 C-61.12886719 16.97005859 -61.13273437 16.00261719 -61.13671875 15.00585938 C-61.13017437 10.22519065 -60.99856331 5.69958765 -60 1 C-54.76469443 5.25202483 -53.55339078 9.58423085 -51.9375 16 C-51.42627335 17.89075812 -50.91455551 19.78138351 -50.40234375 21.671875 C-49.9339898 23.44767795 -49.46646533 25.22370001 -49 27 C-46.47539959 36.51529182 -43.7928258 46.4153674 -35 52 C-30.91172924 52.52996102 -28.60225971 52.28908466 -24.875 50.5 C-17.15080173 43.78330585 -15.04264048 34.46363957 -12.375 24.9375 C-11.80148535 22.92220635 -11.2243531 20.90805514 -10.64248657 18.89515686 C-10.11702871 17.0726793 -9.60188772 15.2472363 -9.08740234 13.42163086 C-4.82197645 0 -4.82197645 0 0 0 Z " fill="#4877B5" transform="translate(61,42)"/>
<path d="M0 0 C5.80640294 2.28562184 8.14083443 6.64098539 10.7421875 12.03076172 C13.02258632 17.41395474 14.55467771 23.00163243 16.125 28.625 C17.39317915 33.09055747 18.68019312 37.54942162 20 42 C20.36303223 43.27762207 20.36303223 43.27762207 20.73339844 44.58105469 C21.44294788 46.99872216 21.44294788 46.99872216 23 50 C25.54246204 50.75154258 25.54246204 50.75154258 28 51 C32.24374567 41.47678745 35.19161735 31.86229358 37.87304688 21.80273438 C39.83284986 14.83058678 42.01266004 8.42122526 47 3 C48.32 2.34 49.64 1.68 51 1 C52.32 3.64 53.64 6.28 55 9 C54.07755493 10.2679541 54.07755493 10.2679541 53.13647461 11.56152344 C50.92569388 14.88635866 49.85835937 18.14810211 48.81640625 22.015625 C48.63416 22.67149597 48.45191376 23.32736694 48.2641449 24.00311279 C47.68665157 26.08274953 47.1229127 28.16570051 46.5625 30.25 C39.94706065 54.83646933 39.94706065 54.83646933 31 61 C27.79745853 62.60127074 25.54685436 62.40701607 22 62 C15.00622784 58.44256178 11.52282355 51.08158275 9 44 C7.02641985 37.65796986 5.30943829 31.24879441 3.61328125 24.828125 C1.70642073 17.77154378 1.70642073 17.77154378 -1 11 C-3.11084605 10.2440165 -4.76181954 10 -7 10 C-8.84333869 15.33690441 -10.50658026 20.69352467 -12.05078125 26.125 C-12.61377949 28.08419294 -13.17782874 30.04308137 -13.74194336 32.00195312 C-14.12191215 33.33257553 -14.49692785 34.66462242 -14.86694336 35.99804688 C-17.51289073 45.50243 -20.31889519 53.91648304 -27.9375 60.5625 C-31.76116116 62.35727973 -33.82158788 62.73305476 -38 62 C-44.98429492 58.37060657 -48.46629981 51.12612911 -51 44 C-52.64976973 38.66872442 -54.13354017 33.29407917 -55.55273438 27.8972168 C-57.4642322 18.824533 -57.4642322 18.824533 -62 11 C-61.62056512 6.90210331 -61.30694043 4.46041065 -59 1 C-58.34 1 -57.68 1 -57 1 C-57 1.66 -57 2.32 -57 3 C-56.39140137 3.24186035 -55.78280273 3.4837207 -55.15576172 3.73291016 C-47.85850095 8.0220136 -45.97890701 21.09085078 -43.875 28.625 C-42.60682085 33.09055747 -41.31980688 37.54942162 -40 42 C-39.75797852 42.85174805 -39.51595703 43.70349609 -39.26660156 44.58105469 C-38.55705212 46.99872216 -38.55705212 46.99872216 -37 50 C-34.45753796 50.75154258 -34.45753796 50.75154258 -32 51 C-27.75625433 41.47678745 -24.80838265 31.86229358 -22.12695312 21.80273438 C-18.8848645 10.26875848 -14.02724737 -2.42094625 0 0 Z " fill="#F6F8FB" transform="translate(64,33)"/>
</svg>
