<?xml version="1.0" encoding="UTF-8"?>
<svg version="1.1" xmlns="http://www.w3.org/2000/svg" width="458" height="458">
<path d="M0 0 C1.37738342 0.00081573 1.37738342 0.00081573 2.78259277 0.00164795 C65.57535552 0.17188816 123.14493168 26.3482571 167.23144531 70.61425781 C173.26262048 76.80818395 178.56560685 83.42216816 183.6875 90.375 C184.10837891 90.93509766 184.52925781 91.49519531 184.96289062 92.07226562 C214.64817113 131.60704012 230.17296526 179.36197343 230.0625 228.6875 C230.06168427 230.06488342 230.06168427 230.06488342 230.06085205 231.47009277 C229.89061184 294.26285552 203.7142429 351.83243168 159.44824219 395.91894531 C153.25431605 401.95012048 146.64033184 407.25310685 139.6875 412.375 C139.12740234 412.79587891 138.56730469 413.21675781 137.99023438 413.65039062 C98.45545988 443.33567113 50.70052657 458.86046526 1.375 458.75 C0.45674438 458.74945618 -0.46151123 458.74891235 -1.40759277 458.74835205 C-64.20035552 458.57811184 -121.76993168 432.4017429 -165.85644531 388.13574219 C-171.88762048 381.94181605 -177.19060685 375.32783184 -182.3125 368.375 C-182.73337891 367.81490234 -183.15425781 367.25480469 -183.58789062 366.67773438 C-213.27317113 327.14295988 -228.79796526 279.38802657 -228.6875 230.0625 C-228.68695618 229.14424438 -228.68641235 228.22598877 -228.68585205 227.27990723 C-228.51561184 164.48714448 -202.3392429 106.91756832 -158.07324219 62.83105469 C-151.87931605 56.79987952 -145.26533184 51.49689315 -138.3125 46.375 C-137.75240234 45.95412109 -137.19230469 45.53324219 -136.61523438 45.09960938 C-97.08045988 15.41432887 -49.32552657 -0.11046526 0 0 Z " fill="#B2B2B0" transform="translate(228.3125,-0.375)"/>
<path d="M0 0 C0.88429688 0.52207031 1.76859375 1.04414062 2.6796875 1.58203125 C5.82098094 3.48636848 8.42488756 5.41259585 11 8 C12.77852013 9.49494803 14.57165636 10.97259209 16.375 12.4375 C17.77878906 13.58025391 17.77878906 13.58025391 19.2109375 14.74609375 C21.06786622 16.24672102 22.94848196 17.71850757 24.8515625 19.16015625 C25.91503906 20.07087891 25.91503906 20.07087891 27 21 C27 21.66 27 22.32 27 23 C27.66 23 28.32 23 29 23 C30.33984375 24.29296875 30.33984375 24.29296875 31.9375 26.1875 C32.56140625 26.92613281 33.1853125 27.66476563 33.828125 28.42578125 C34.54484375 29.27527344 35.2615625 30.12476563 36 31 C36.81984375 31.92167969 37.6396875 32.84335938 38.484375 33.79296875 C49.81584737 46.61794584 58.76062799 60.94206683 66.81616211 76.0078125 C69.66949808 81.2100438 72.29040449 84.41488656 77 88 C87.23318402 102.07819695 87.38515512 121.75718215 87.3125 138.375 C87.31100952 139.21427032 87.30951904 140.05354065 87.3079834 140.91824341 C87.26582043 154.12830995 86.68460829 167.02537663 84 180 C83.74476563 181.24523437 83.48953125 182.49046875 83.2265625 183.7734375 C79.84436947 197.82970761 74.41204031 211.61359509 69 225 C68.01 225 67.02 225 66 225 C64.515 230.445 64.515 230.445 63 236 C62.01 236 61.02 236 60 236 C59.8865625 236.72960937 59.773125 237.45921875 59.65625 238.2109375 C54.23952538 261.23201715 23.96581214 284.17817367 4.87109375 296.2890625 C1.38886119 298.44389701 -2.10296585 300.58144054 -5.62890625 302.6640625 C-6.7128064 303.30529053 -6.7128064 303.30529053 -7.81860352 303.95947266 C-10.20289425 305.09678067 -12.3994208 305.58657605 -15 306 C-13.90240098 298.54329554 -6.2878889 292.11364198 -1 287.1875 C5.12614279 281.27006348 9.35683801 273.59765895 13.57421875 266.26171875 C15 264 15 264 16.46582031 262.5847168 C18.0726925 260.92491295 18.95549417 259.44812979 19.97265625 257.3828125 C20.31490234 256.69316406 20.65714844 256.00351562 21.00976562 255.29296875 C21.35716797 254.57753906 21.70457031 253.86210937 22.0625 253.125 C22.5894043 252.06345703 22.5894043 252.06345703 23.12695312 250.98046875 C24.90469834 247.37120908 26.57460815 243.76657951 28 240 C28.66 240 29.32 240 30 240 C30.14695312 238.78376953 30.14695312 238.78376953 30.296875 237.54296875 C31.15174558 233.23537091 32.65510369 229.39175402 34.25 225.3125 C39.80861519 210.63472807 43.58635 195.50430401 46 180 C46.16918945 179.01128906 46.33837891 178.02257812 46.51269531 177.00390625 C48.18694847 166.20961574 48.37231319 155.5295034 48.37060547 144.62402344 C48.3749541 141.53263172 48.41132991 138.44270107 48.44921875 135.3515625 C48.55551198 116.65027722 45.65535473 98.80117496 40.8125 80.75 C40.52133301 79.64865723 40.23016602 78.54731445 39.93017578 77.41259766 C37.65077951 68.98967436 35.09267409 60.66620909 32.375 52.375 C32.01510986 51.26737305 31.65521973 50.15974609 31.28442383 49.01855469 C28.18262759 39.82250835 24.7077139 30.50846344 16.33203125 24.87890625 C12.99674952 23.62189052 9.75875394 23.78877353 6.25 23.875 C5.55261719 23.88402344 4.85523438 23.89304688 4.13671875 23.90234375 C2.42433042 23.92580112 0.71211996 23.96166896 -1 24 C-1.29648437 24.61746094 -1.59296875 25.23492187 -1.8984375 25.87109375 C-3 28 -3 28 -4.625 30.0625 C-7.67338379 36.57495628 -6.41916159 43.56062895 -4.05859375 50.13671875 C-3.19972398 52.32618728 -2.32533441 54.50961576 -1.4375 56.6875 C9.39940695 84.64410772 16.22074741 112.49771791 16.25 142.5625 C16.25100708 143.28421387 16.25201416 144.00592773 16.25305176 144.74951172 C16.22174096 178.1747085 9.15338882 208.23441482 -6 238 C-6.66 238 -7.32 238 -8 238 C-8.33 239.98 -8.66 241.96 -9 244 C-9.99 244.33 -10.98 244.66 -12 245 C-12.268125 245.680625 -12.53625 246.36125 -12.8125 247.0625 C-14.24203135 250.59870914 -16.29793963 253.16415885 -18.66015625 256.1328125 C-20.18614683 258.06483629 -20.18614683 258.06483629 -21 261 C-21.66 261 -22.32 261 -23 261 C-23.165 261.680625 -23.33 262.36125 -23.5 263.0625 C-25.34637119 266.67831025 -27.6747071 268.5202997 -30.76171875 271.09375 C-37.18873766 276.37739034 -37.18873766 276.37739034 -42 283 C-43.66220581 284.00739746 -45.33020674 285.00522955 -47 286 C-48.15015715 286.91123561 -49.29550203 287.82855958 -50.4375 288.75 C-68.05183806 301.99361611 -90.4976105 306.06312649 -112 307 C-113.46373047 307.06380859 -113.46373047 307.06380859 -114.95703125 307.12890625 C-134.21485922 307.53291663 -152.4499054 303.95987897 -170 296 C-171.00546875 295.55140625 -172.0109375 295.1028125 -173.046875 294.640625 C-177.06939828 292.83155368 -181.06567235 290.99448555 -185 289 C-185 288.34 -185 287.68 -185 287 C-185.86625 286.773125 -186.7325 286.54625 -187.625 286.3125 C-190.76913821 285.08977959 -192.68942264 283.76829234 -195.17578125 281.54296875 C-197.47291123 279.60000014 -199.91282769 277.91611477 -202.375 276.1875 C-210.55603747 270.26177556 -216.74157258 263.29597353 -223.01953125 255.41796875 C-224.83908463 253.09738017 -224.83908463 253.09738017 -226.47265625 251.58984375 C-253.40445691 223.55597452 -262.79153224 176.92573595 -262.1796875 139.6796875 C-261.51071981 114.46538666 -253.83046996 89.61938858 -243 67 C-242.34 67 -241.68 67 -241 67 C-240.34 64.69 -239.68 62.38 -239 60 C-238.34 60 -237.68 60 -237 60 C-236.61521484 58.92105469 -236.61521484 58.92105469 -236.22265625 57.8203125 C-233.99308194 52.67733279 -230.38493476 48.43461837 -227 44 C-226.04480469 42.7315625 -226.04480469 42.7315625 -225.0703125 41.4375 C-209.03907878 20.97740404 -189.08189015 4.8336041 -166 -7 C-165.10925781 -7.46535156 -164.21851563 -7.93070313 -163.30078125 -8.41015625 C-110.93202899 -33.97794581 -49.41970201 -29.46667535 0 0 Z " fill="#FAFAFA" transform="translate(318,84)"/>
<path d="M0 0 C1.08941895 0.51570557 2.17883789 1.03141113 3.30126953 1.56274414 C4.31688965 2.05379639 5.33250977 2.54484863 6.37890625 3.05078125 C7.28326416 3.48688721 8.18762207 3.92299316 9.11938477 4.37231445 C11.31504422 5.61802456 12.73832443 6.84940622 14.4375 8.6875 C15.64493605 9.37310162 16.87773757 10.01484608 18.125 10.625 C22.96589078 13.23286044 27.29671739 16.3980358 31.6875 19.6875 C32.37287842 20.19788818 33.05825684 20.70827637 33.7644043 21.23413086 C37.61780502 24.15297496 41.07071653 27.20279066 44.4375 30.6875 C45.57195317 31.67982928 46.71734343 32.6598406 47.875 33.625 C66.58635072 49.93111093 79.80156004 68.96254856 92.5625 90.0625 C92.94092041 90.68688965 93.31934082 91.3112793 93.70922852 91.95458984 C97.65512554 98.56385252 98.14692616 104.08087508 97.4375 111.6875 C95.8323124 116.60774896 92.70383356 119.8612034 88.4375 122.6875 C85.09765625 123.25390625 85.09765625 123.25390625 81.5 123.25 C80.31535156 123.27191406 79.13070313 123.29382813 77.91015625 123.31640625 C73.5941906 122.53477468 71.18518273 120.99378014 68.4375 117.6875 C66.33461338 114.38254453 64.57845865 110.93142361 62.8125 107.4375 C54.2879564 91.23217547 43.81997683 75.76757459 30.62109375 62.953125 C28.4375 60.6875 28.4375 60.6875 28.4375 58.6875 C27.7775 58.6875 27.1175 58.6875 26.4375 58.6875 C26.4375 58.0275 26.4375 57.3675 26.4375 56.6875 C25.87933594 56.44902344 25.32117188 56.21054688 24.74609375 55.96484375 C21.92192204 54.40223098 19.85241932 52.457432 17.5 50.25 C14.94039066 47.84863544 12.64875295 45.81202497 9.62109375 44.02734375 C8.90050781 43.58519531 8.17992187 43.14304687 7.4375 42.6875 C7.4375 42.0275 7.4375 41.3675 7.4375 40.6875 C6.75300781 40.44386719 6.06851562 40.20023438 5.36328125 39.94921875 C1.89627854 38.45410276 -1.19075428 36.50547052 -4.375 34.5 C-12.12760077 29.73694536 -20.13292635 26.08064766 -28.5625 22.6875 C-30.01076172 22.10355469 -30.01076172 22.10355469 -31.48828125 21.5078125 C-73.32345273 5.51748029 -119.77651419 9.49864945 -160.5625 26.6875 C-172.29984292 31.96875119 -182.88620988 38.51678867 -192.99316406 46.46044922 C-194.36037284 47.52945845 -195.75246449 48.56649189 -197.1484375 49.59765625 C-212.16858675 60.95009463 -226.64737226 76.07026675 -235.796875 92.62109375 C-237.5625 95.6875 -237.5625 95.6875 -239.5625 96.6875 C-240.28943904 98.66638961 -240.96066251 100.66704558 -241.5625 102.6875 C-242.2225 102.6875 -242.8825 102.6875 -243.5625 102.6875 C-243.954375 103.925 -244.34625 105.1625 -244.75 106.4375 C-245.94033866 110.04188997 -247.33118844 113.47139405 -248.875 116.9375 C-266.61421256 158.90065237 -265.3231615 205.92616647 -248.8125 248 C-243.61486404 260.72372187 -237.0222803 272.94825242 -228.7421875 283.9375 C-227.5625 285.6875 -227.5625 285.6875 -227.5625 287.6875 C-227.01980469 287.88085938 -226.47710937 288.07421875 -225.91796875 288.2734375 C-222.49148769 290.33046261 -220.37719301 293.23598725 -217.875 296.3125 C-211.49640888 303.93937245 -204.99895293 310.61775214 -196.2890625 315.58203125 C-194.5625 316.6875 -194.5625 316.6875 -193.03125 318.2265625 C-191.45846583 319.94374679 -191.45846583 319.94374679 -188.4375 321.25 C-185.5625 322.6875 -185.5625 322.6875 -184.5625 324.6875 C-182.80178831 325.52663517 -181.00180466 326.28407258 -179.1875 327 C-175.10170253 328.6401076 -171.09813565 330.35412968 -167.125 332.25 C-136.76406571 346.14176562 -100.10937949 344.15965135 -69.09765625 333.49609375 C-61.35829939 330.47804339 -53.24562721 326.52634766 -47.4375 320.47265625 C-45.5625 318.6875 -45.5625 318.6875 -42.5625 318.6875 C-42.29373047 318.09420898 -42.02496094 317.50091797 -41.74804688 316.88964844 C-40.55959268 314.68209967 -39.35507611 313.22207118 -37.59375 311.453125 C-37.02269531 310.87949219 -36.45164062 310.30585938 -35.86328125 309.71484375 C-35.26902344 309.12832031 -34.67476563 308.54179687 -34.0625 307.9375 C-33.46824219 307.33550781 -32.87398438 306.73351562 -32.26171875 306.11328125 C-31.40513672 305.26056641 -31.40513672 305.26056641 -30.53125 304.390625 C-30.00982422 303.87145508 -29.48839844 303.35228516 -28.95117188 302.81738281 C-27.5625 301.6875 -27.5625 301.6875 -25.5625 301.6875 C-24.9025 300.0375 -24.2425 298.3875 -23.5625 296.6875 C-22.9025 296.6875 -22.2425 296.6875 -21.5625 296.6875 C-21.41941406 295.85412109 -21.41941406 295.85412109 -21.2734375 295.00390625 C-20.38346787 292.10417005 -18.94960395 290.08971502 -17.1875 287.625 C-16.58164062 286.76777344 -15.97578125 285.91054688 -15.3515625 285.02734375 C-13.5625 282.6875 -13.5625 282.6875 -11.90234375 281.07421875 C-9.88199802 278.98319037 -9.45180471 276.4147011 -8.5625 273.6875 C-7.9025 273.3575 -7.2425 273.0275 -6.5625 272.6875 C-5.7236931 270.73617027 -4.96629241 268.74955243 -4.25 266.75 C-2.72163586 262.62207221 -1.13724154 258.69364111 0.9375 254.8125 C7.35561552 242.25794174 10.16927559 228.49562242 12.4375 214.6875 C12.55754395 213.9567627 12.67758789 213.22602539 12.80126953 212.47314453 C19.25866257 170.58188982 12.07413226 127.59930336 -4.18359375 88.74609375 C-7.00062006 81.98682666 -8.90617104 76.05953298 -7.5625 68.6875 C-5.6875 65.1875 -5.6875 65.1875 -3.5625 62.6875 C-2.9025 61.6975 -2.2425 60.7075 -1.5625 59.6875 C4.20747257 57.76417581 11.73702427 57.37476534 17.3125 60.125 C27.96139901 67.54304373 31.73891675 83.8556479 35.3125 95.5625 C35.81740967 97.21125122 35.81740967 97.21125122 36.33251953 98.89331055 C38.96466903 107.69405958 41.22330681 116.55809553 43.3125 125.5 C43.59851074 126.71993652 43.88452148 127.93987305 44.17919922 129.19677734 C44.97327251 132.68640756 45.71984862 136.1814053 46.4375 139.6875 C46.64358887 140.66348145 46.84967773 141.63946289 47.06201172 142.64501953 C49.08347199 153.63592083 48.83268182 164.8025834 48.8125 175.9375 C48.81228851 177.00819733 48.81207703 178.07889465 48.81185913 179.18203735 C48.78046983 195.07647793 48.03823453 210.15382549 44.4375 225.6875 C44.05802569 227.49049282 43.6804331 229.29388267 43.3046875 231.09765625 C40.00117369 246.37172894 34.97885525 261.09526451 29.4375 275.6875 C28.7775 275.6875 28.1175 275.6875 27.4375 275.6875 C27.31375 276.24695313 27.19 276.80640625 27.0625 277.3828125 C25.58826457 283.11390274 23.36424703 288.02048711 20.4375 293.125 C20.09332031 293.72779785 19.74914062 294.3305957 19.39453125 294.95166016 C17.65175389 297.91221154 15.85691045 300.28123852 13.4375 302.6875 C12.40442105 304.48135176 11.40862119 306.29686437 10.4375 308.125 C6.99317306 314.15439261 2.92196888 318.88813841 -1.8515625 323.85546875 C-4.28715854 326.39985942 -6.58792599 329.01048426 -8.875 331.6875 C-11.85208177 335.05582044 -14.61682239 337.52677179 -18.5625 339.6875 C-19.2225 339.6875 -19.8825 339.6875 -20.5625 339.6875 C-21.2225 341.3375 -21.8825 342.9875 -22.5625 344.6875 C-23.5525 344.6875 -24.5425 344.6875 -25.5625 344.6875 C-25.80750244 345.29110352 -26.05250488 345.89470703 -26.30493164 346.51660156 C-27.8032297 349.10306368 -29.10700999 349.93844622 -31.68359375 351.421875 C-32.52720459 351.90978516 -33.37081543 352.39769531 -34.23999023 352.90039062 C-35.15079346 353.40763672 -36.06159668 353.91488281 -37 354.4375 C-37.93851807 354.96537109 -38.87703613 355.49324219 -39.84399414 356.03710938 C-63.29810373 368.97893848 -86.38195677 375.06953337 -113.14697266 375.00317383 C-115.79501864 375.00002081 -118.44193532 375.02354215 -121.08984375 375.04882812 C-135.63652862 375.10385396 -150.08930691 373.86383408 -163.875 368.875 C-164.61081299 368.62000732 -165.34662598 368.36501465 -166.10473633 368.10229492 C-172.80130716 365.72505957 -179.17170443 362.79027756 -185.5625 359.6875 C-186.8288974 359.13554189 -188.09896518 358.59179696 -189.375 358.0625 C-193.18861553 356.41741095 -196.86096415 354.57073754 -200.5625 352.6875 C-200.5625 352.0275 -200.5625 351.3675 -200.5625 350.6875 C-202.2125 350.3575 -203.8625 350.0275 -205.5625 349.6875 C-205.5625 349.0275 -205.5625 348.3675 -205.5625 347.6875 C-206.26246094 347.43871094 -206.96242188 347.18992187 -207.68359375 346.93359375 C-216.13814502 343.27416111 -223.60341504 336.9144421 -230.375 330.75 C-231.15725952 330.04145874 -231.15725952 330.04145874 -231.95532227 329.31860352 C-233.20140686 328.15326605 -234.38826674 326.92520533 -235.5625 325.6875 C-235.5625 325.0275 -235.5625 324.3675 -235.5625 323.6875 C-236.42875 323.3471875 -236.42875 323.3471875 -237.3125 323 C-240.14164534 321.34966522 -241.54524596 319.25491423 -243.5625 316.6875 C-244.449375 315.98625 -245.33625 315.285 -246.25 314.5625 C-248.5625 312.6875 -248.5625 312.6875 -249.5625 309.6875 C-250.28308594 309.14738281 -251.00367188 308.60726563 -251.74609375 308.05078125 C-255.57897725 304.83456139 -257.94539084 301.06851723 -260.625 296.875 C-261.18791748 295.9977124 -261.75083496 295.1204248 -262.33081055 294.21655273 C-276.84089782 271.20355838 -287.15833445 247.35223932 -292.5625 220.6875 C-292.72621094 219.93919922 -292.88992188 219.19089844 -293.05859375 218.41992188 C-301.90203684 177.52813338 -292.95985625 132.5745376 -275.75 95.0625 C-275.46012207 94.42852295 -275.17024414 93.7945459 -274.87158203 93.14135742 C-272.81390473 88.81320236 -272.81390473 88.81320236 -270.5625 87.6875 C-269.65906316 85.80486119 -269.65906316 85.80486119 -268.9375 83.625 C-268.67710937 82.89152344 -268.41671875 82.15804687 -268.1484375 81.40234375 C-267.95507812 80.83644531 -267.76171875 80.27054687 -267.5625 79.6875 C-266.9025 79.6875 -266.2425 79.6875 -265.5625 79.6875 C-265.253125 78.73875 -264.94375 77.79 -264.625 76.8125 C-263.5625 73.6875 -263.5625 73.6875 -262.5625 71.6875 C-261.5725 71.6875 -260.5825 71.6875 -259.5625 71.6875 C-259.31628906 70.82640625 -259.07007813 69.9653125 -258.81640625 69.078125 C-255.10840566 59.05150657 -246.87118709 50.28347825 -239.5625 42.6875 C-239.10423828 42.19813965 -238.64597656 41.7087793 -238.17382812 41.20458984 C-207.24510049 8.23243033 -164.91899186 -13.03207431 -120.5625 -20.3125 C-119.8907373 -20.42964355 -119.21897461 -20.54678711 -118.52685547 -20.66748047 C-76.46733805 -27.80286117 -37.70440559 -17.89998937 0 0 Z " fill="#040404" transform="translate(318.5625,48.3125)"/>
<path d="M0 0 C4.30498074 2.58160421 7.23496908 5.85245362 10 10 C11.39367789 19.03690084 9.38173529 27.9179615 7.625 36.75 C4.63352601 51.81327209 3.43830932 66.80060112 2.76953125 82.125 C2.16475978 95.53288219 2.16475978 95.53288219 -1 102 C-1.66 102 -2.32 102 -3 102 C-3.33 102.99 -3.66 103.98 -4 105 C-9.07533898 108.51369622 -14.04470665 108.7091948 -20 108 C-24.75702659 106.29465085 -27.70572491 103.79946744 -31 100 C-40.11913533 74.38550043 -31.73820065 43.76983985 -24.8125 18.625 C-24.57515137 17.75157959 -24.33780273 16.87815918 -24.09326172 15.97827148 C-23.39453125 13.6015625 -23.39453125 13.6015625 -22 10 C-21.01 9.67 -20.02 9.34 -19 9 C-18.30341637 7.34561387 -17.63903117 5.67745682 -17 4 C-12.80245331 -1.11005685 -6.12180211 -1.04254123 0 0 Z " fill="#050505" transform="translate(172,113)"/>
<path d="M0 0 C3.8026029 2.0050088 5.61790841 3.42686262 8 7 C9.95014528 20.01608593 4.27190654 32.54841668 -3 43 C-8.56296597 50.0263943 -13.81507717 56.52934278 -23 58 C-32.35827607 58.80743259 -39.7998981 57.78189229 -47.4921875 52.1875 C-54.74008839 46.0459765 -65.53457279 35.62303964 -67.40625 25.88671875 C-67.59488599 21.46163276 -67.19687877 18.54310966 -64.5 14.9375 C-62.09680319 12.49462777 -60.43689217 11.52701638 -57 11.375 C-52.16483041 11.87961922 -48.63346117 13.16520524 -45.3203125 16.88671875 C-43.48827249 19.21951636 -41.73472284 21.59401485 -40 24 C-38.78134616 25.67436893 -37.5524952 27.34137395 -36.3125 29 C-35.77238281 29.7425 -35.23226562 30.485 -34.67578125 31.25 C-32.74068602 33.27079874 -31.78293908 33.82972457 -29 34 C-24.42036973 32.49080366 -22.76753967 29.19601678 -20.4453125 25.19921875 C-18.46202856 20.80919295 -17.39667301 16.33912881 -16.46875 11.62255859 C-15.53090056 7.12464153 -14.19387325 4.31193471 -11 1 C-7.53081128 -0.73459436 -3.79303468 -0.47173877 0 0 Z " fill="#070707" transform="translate(280,263)"/>
<path d="M0 0 C1.37738342 0.00081573 1.37738342 0.00081573 2.78259277 0.00164795 C37.92013055 0.09691087 70.47533896 8.11047437 102.1875 23.125 C103.18579834 23.59703857 104.18409668 24.06907715 105.21264648 24.55541992 C106.14278564 25.0063501 107.0729248 25.45728027 108.03125 25.921875 C108.85818359 26.32245117 109.68511719 26.72302734 110.53710938 27.13574219 C112.63279599 28.34347439 114.07908141 29.58339319 115.6875 31.375 C114.0375 31.375 112.3875 31.375 110.6875 31.375 C110.6875 30.715 110.6875 30.055 110.6875 29.375 C109.78 29.148125 108.8725 28.92125 107.9375 28.6875 C101.51530128 26.84888666 95.30557695 24.12612408 89.30053711 21.21972656 C82.27790528 17.86840629 75.28028117 15.6669602 67.75 13.75 C66.66009766 13.46382812 65.57019531 13.17765625 64.44726562 12.8828125 C62.2599771 12.31097236 60.07066691 11.74680871 57.87939453 11.19042969 C55.82414355 10.66537704 53.7725953 10.12549425 51.72607422 9.56738281 C37.09255331 5.66347782 22.79150169 5.02675495 7.73876953 5.05932617 C4.72000271 5.06246619 1.7022389 5.03901177 -1.31640625 5.01367188 C-19.29642664 4.95412115 -37.21212583 6.48681908 -54.625 11.1875 C-55.61806152 11.44756836 -56.61112305 11.70763672 -57.63427734 11.97558594 C-92.08123175 21.16809365 -123.11379736 37.28401931 -150.3125 60.375 C-151.36577707 61.24519957 -152.42052329 62.11362328 -153.4765625 62.98046875 C-158.28782841 66.94230436 -162.9549458 70.90652624 -167.3125 75.375 C-167.9725 75.045 -168.6325 74.715 -169.3125 74.375 C-159.51783261 64.2319269 -149.69853638 54.70544304 -138.3125 46.375 C-137.18466154 45.52895808 -136.05705819 44.68260264 -134.9296875 43.8359375 C-95.84466041 14.84368207 -48.49988227 -0.10861621 0 0 Z " fill="#F9F9F9" transform="translate(228.3125,-0.375)"/>
<path d="M0 0 C4.09580034 1.27595144 7.80551127 2.80721403 11.60546875 4.79296875 C12.66185547 5.33759766 13.71824219 5.88222656 14.80664062 6.44335938 C16.48016602 7.30670898 16.48016602 7.30670898 18.1875 8.1875 C69.78393346 34.34462348 128.09537586 39.38052055 184.234375 26.0859375 C188.14712443 25.16119031 192.01041138 24.49052319 196 24 C167.6570964 42.89526907 112.94236213 39.21147143 80.921875 33.26171875 C53.61513682 27.63895637 22.32083509 18.35458572 0 1 C0 0.67 0 0.34 0 0 Z " fill="#F9F9F9" transform="translate(106,422)"/>
<path d="M0 0 C4.22113658 1.31297209 8.05851853 2.92143615 11.9921875 4.93359375 C13.10980469 5.50013672 14.22742188 6.06667969 15.37890625 6.65039062 C17.70185829 7.83782142 20.0247752 9.02532095 22.34765625 10.21289062 C28.15038381 13.15431927 33.84280629 15.88961051 40 18 C39.67 18.66 39.34 19.32 39 20 C35.3006016 19.39075558 32.25108646 18.34581489 28.8671875 16.7421875 C27.90047119 16.28440918 26.93375488 15.82663086 25.93774414 15.35498047 C24.92703857 14.86658691 23.91633301 14.37819336 22.875 13.875 C21.84560303 13.38016113 20.81620605 12.88532227 19.75561523 12.37548828 C6.03012795 5.68846134 6.03012795 5.68846134 0 1 C0 0.67 0 0.34 0 0 Z " fill="#EFEFEF" transform="translate(106,422)"/>
<path d="M0 0 C0.66 0.33 1.32 0.66 2 1 C1.34 1.66 0.68 2.32 0 3 C-0.103125 3.66 -0.20625 4.32 -0.3125 5 C-0.539375 5.66 -0.76625 6.32 -1 7 C-3.5625 8.25 -3.5625 8.25 -6 9 C-6.375 6.75 -6.375 6.75 -6 4 C-3 1.6875 -3 1.6875 0 0 Z " fill="#C3C3C2" transform="translate(304,384)"/>
<path d="M0 0 C4.67105792 1.55701931 8.08705685 4.08447373 12 7 C11.01 7.495 11.01 7.495 10 8 C7.96855359 7.06553465 5.96466413 6.06775224 4 5 C4 4.34 4 3.68 4 3 C2.68 2.34 1.36 1.68 0 1 C0 0.67 0 0.34 0 0 Z " fill="#EEEEEE" transform="translate(346,32)"/>
</svg>
